<svg width="136" height="40" viewBox="0 0 136 40" fill="none" xmlns="http://www.w3.org/2000/svg">
<rect x="0.5" width="135" height="40" rx="20" fill="white"/>
<path d="M32.9309 19.0424C32.9421 18.1745 33.1733 17.3234 33.6029 16.5685C34.0326 15.8136 34.6468 15.1793 35.3883 14.7247C34.9172 14.0538 34.2958 13.5017 33.5733 13.1122C32.8508 12.7227 32.0472 12.5066 31.2263 12.481C29.4751 12.2977 27.7775 13.5259 26.8851 13.5259C25.9755 13.5259 24.6016 12.4992 23.1221 12.5295C22.1652 12.5603 21.2325 12.8378 20.4151 13.335C19.5976 13.8321 18.9233 14.5319 18.4577 15.3662C16.4409 18.8482 17.9453 23.9656 19.8772 26.7802C20.8438 28.1584 21.9734 29.698 23.4516 29.6434C24.898 29.5835 25.4382 28.7236 27.1842 28.7236C28.914 28.7236 29.4208 29.6434 30.929 29.6087C32.4811 29.5835 33.459 28.2243 34.3917 26.833C35.0861 25.851 35.6206 24.7656 35.9751 23.6171C35.0734 23.2368 34.3038 22.6002 33.7625 21.7867C33.2211 20.9732 32.9319 20.0188 32.9309 19.0424Z" fill="black"/>
<path d="M30.0823 10.6299C30.9286 9.61682 31.3455 8.31468 31.2445 7C29.9516 7.13541 28.7573 7.75161 27.8996 8.72582C27.4803 9.20174 27.1591 9.75542 26.9544 10.3552C26.7498 10.955 26.6657 11.5891 26.707 12.2213C27.3536 12.228 27.9934 12.0882 28.5781 11.8125C29.1627 11.5369 29.6771 11.1325 30.0823 10.6299Z" fill="black"/>
<path d="M50.2845 26.2927H45.5378L44.3979 29.6492H42.3874L46.8834 17.2312H48.9722L53.4682 29.6492H51.4234L50.2845 26.2927ZM46.0294 24.7439H49.792L47.9371 19.2966H47.8852L46.0294 24.7439Z" fill="black"/>
<path d="M63.178 25.1228C63.178 27.9363 61.6679 29.7439 59.3891 29.7439C58.8118 29.774 58.2377 29.6414 57.7325 29.3613C57.2273 29.0811 56.8114 28.6648 56.5325 28.1599H56.4893V32.6443H54.6257V20.5955H56.4296V22.1013H56.4639C56.7556 21.5989 57.1786 21.1847 57.6876 20.9028C58.1967 20.621 58.7728 20.482 59.3548 20.5007C61.6591 20.5007 63.178 22.3171 63.178 25.1228ZM61.2625 25.1228C61.2625 23.2898 60.3126 22.0847 58.8632 22.0847C57.4393 22.0847 56.4815 23.3152 56.4815 25.1228C56.4815 26.947 57.4393 28.1687 58.8632 28.1687C60.3126 28.1687 61.2624 26.9724 61.2624 25.1228H61.2625Z" fill="black"/>
<path d="M73.1713 25.1228C73.1713 27.9363 71.6607 29.7439 69.3819 29.7439C68.8046 29.774 68.2305 29.6414 67.7253 29.3613C67.2201 29.0811 66.8042 28.6648 66.5253 28.1599H66.4821V32.6443H64.6185V20.5955H66.4224V22.1013H66.4567C66.7485 21.5989 67.1714 21.1847 67.6804 20.9028C68.1895 20.621 68.7656 20.482 69.3476 20.5007C71.6519 20.5007 73.1713 22.3171 73.1713 25.1228ZM71.2553 25.1228C71.2553 23.2898 70.3054 22.0847 68.856 22.0847C67.4321 22.0847 66.4743 23.3152 66.4743 25.1228C66.4743 26.947 67.4321 28.1687 68.856 28.1687C70.3054 28.1687 71.2553 26.9724 71.2553 25.1228Z" fill="black"/>
<path d="M79.7748 26.1892C79.9129 27.4207 81.1125 28.2292 82.7518 28.2292C84.3227 28.2292 85.4528 27.4206 85.4528 26.3103C85.4528 25.3464 84.7712 24.7693 83.1573 24.3737L81.5434 23.986C79.2567 23.4353 78.1952 22.3689 78.1952 20.6384C78.1952 18.4958 80.0676 17.0241 82.7254 17.0241C85.3578 17.0241 87.1617 18.4958 87.2224 20.6384H85.3411C85.2285 19.3991 84.2012 18.6511 82.6999 18.6511C81.1987 18.6511 80.1714 19.4079 80.1714 20.5095C80.1714 21.3874 80.8275 21.904 82.4326 22.2995L83.8046 22.6354C86.3596 23.238 87.4202 24.2614 87.4202 26.0778C87.4202 28.401 85.5654 29.8561 82.6137 29.8561C79.8521 29.8561 77.9875 28.4352 77.867 26.1891L79.7748 26.1892Z" fill="black"/>
<path d="M91.4441 18.4529V20.5955H93.1707V22.0671H91.4441V27.0584C91.4441 27.8337 91.7898 28.1951 92.5488 28.1951C92.7538 28.1915 92.9584 28.1772 93.1618 28.1521V29.615C92.8206 29.6785 92.4738 29.7073 92.1267 29.7009C90.2886 29.7009 89.5717 29.0124 89.5717 27.2566V22.0671H88.2516V20.5955H89.5717V18.4529H91.4441Z" fill="black"/>
<path d="M94.1696 25.1228C94.1696 22.2742 95.852 20.4841 98.4756 20.4841C101.108 20.4841 102.783 22.2741 102.783 25.1228C102.783 27.9793 101.117 29.7615 98.4756 29.7615C95.8353 29.7615 94.1696 27.9793 94.1696 25.1228ZM100.884 25.1228C100.884 23.1687 99.9856 22.0154 98.4756 22.0154C96.9655 22.0154 96.0675 23.1775 96.0675 25.1228C96.0675 27.0847 96.9655 28.2293 98.4756 28.2293C99.9856 28.2293 100.884 27.0847 100.884 25.1228H100.884Z" fill="black"/>
<path d="M104.319 20.5955H106.096V22.1365H106.14C106.26 21.6552 106.543 21.2298 106.94 20.932C107.338 20.6341 107.826 20.4818 108.323 20.5007C108.538 20.5 108.752 20.5232 108.962 20.5701V22.3083C108.691 22.2257 108.408 22.1878 108.125 22.196C107.854 22.1851 107.584 22.2327 107.333 22.3356C107.083 22.4385 106.858 22.5942 106.673 22.7921C106.489 22.99 106.349 23.2253 106.265 23.482C106.18 23.7387 106.152 24.0106 106.183 24.279V29.6492H104.319L104.319 20.5955Z" fill="black"/>
<path d="M117.554 26.99C117.304 28.6335 115.699 29.7615 113.645 29.7615C111.004 29.7615 109.364 27.9968 109.364 25.1658C109.364 22.3259 111.013 20.4841 113.567 20.4841C116.079 20.4841 117.658 22.2048 117.658 24.9499V25.5867H111.246V25.699C111.216 26.0322 111.258 26.3678 111.368 26.6837C111.479 26.9995 111.656 27.2883 111.887 27.5308C112.118 27.7734 112.398 27.9642 112.708 28.0905C113.019 28.2168 113.353 28.2757 113.688 28.2634C114.128 28.3046 114.57 28.2029 114.948 27.9734C115.326 27.744 115.619 27.3991 115.785 26.99L117.554 26.99ZM111.254 24.2878H115.794C115.81 23.9882 115.765 23.6884 115.66 23.4072C115.555 23.126 115.393 22.8695 115.184 22.6537C114.974 22.4379 114.723 22.2676 114.445 22.1534C114.166 22.0392 113.867 21.9835 113.567 21.99C113.263 21.9882 112.962 22.0463 112.681 22.1611C112.401 22.2758 112.145 22.4449 111.93 22.6585C111.715 22.8721 111.545 23.1261 111.429 23.4058C111.313 23.6854 111.254 23.9852 111.254 24.2878V24.2878Z" fill="black"/>
<path d="M45.7963 7.88409C46.187 7.85613 46.5791 7.91499 46.9442 8.05642C47.3094 8.19786 47.6385 8.41834 47.9078 8.70196C48.1772 8.98559 48.38 9.32529 48.5018 9.69656C48.6235 10.0678 48.6611 10.4614 48.6118 10.8489C48.6118 12.7552 47.5787 13.8509 45.7963 13.8509H43.635V7.88409H45.7963ZM44.5644 13.0071H45.6925C45.9717 13.0237 46.2511 12.9781 46.5104 12.8735C46.7696 12.7689 47.0022 12.6079 47.1913 12.4023C47.3803 12.1968 47.521 11.9518 47.6031 11.6851C47.6851 11.4185 47.7066 11.137 47.6658 10.8611C47.7036 10.5863 47.68 10.3065 47.5967 10.0418C47.5133 9.77716 47.3723 9.53415 47.1837 9.33022C46.9951 9.12629 46.7636 8.96649 46.5058 8.86225C46.248 8.75801 45.9703 8.71193 45.6925 8.7273H44.5644V13.0071Z" fill="black"/>
<path d="M49.6616 11.5974C49.6333 11.3015 49.6672 11.0029 49.7613 10.7209C49.8554 10.4388 50.0076 10.1795 50.2081 9.95948C50.4086 9.73949 50.653 9.56373 50.9256 9.44345C51.1982 9.32318 51.493 9.26105 51.7911 9.26105C52.0892 9.26105 52.3841 9.32318 52.6567 9.44345C52.9293 9.56373 53.1737 9.73949 53.3742 9.95948C53.5747 10.1795 53.7269 10.4388 53.821 10.7209C53.9151 11.0029 53.949 11.3015 53.9206 11.5974C53.9496 11.8936 53.916 12.1926 53.8222 12.4752C53.7283 12.7577 53.5762 13.0175 53.3757 13.2379C53.1751 13.4583 52.9305 13.6345 52.6576 13.755C52.3848 13.8755 52.0896 13.9378 51.7911 13.9378C51.4927 13.9378 51.1975 13.8755 50.9246 13.755C50.6517 13.6345 50.4072 13.4583 50.2066 13.2379C50.0061 13.0175 49.854 12.7577 49.7601 12.4752C49.6663 12.1926 49.6327 11.8936 49.6616 11.5974ZM53.004 11.5974C53.004 10.6214 52.5643 10.0506 51.7926 10.0506C51.018 10.0506 50.5822 10.6214 50.5822 11.5974C50.5822 12.5813 51.018 13.1477 51.7926 13.1477C52.5643 13.1477 53.004 12.5774 53.004 11.5974H53.004Z" fill="black"/>
<path d="M59.582 13.8508H58.6575L57.7243 10.5344H57.6538L56.7244 13.8508H55.8087L54.564 9.34792H55.4679L56.2768 12.7839H56.3434L57.2718 9.34792H58.1268L59.0551 12.7839H59.1256L59.9306 9.34792H60.8218L59.582 13.8508Z" fill="black"/>
<path d="M61.8687 9.34791H62.7265V10.0632H62.7931C62.9061 9.80632 63.0966 9.59095 63.3382 9.44715C63.5797 9.30334 63.8603 9.23827 64.1407 9.26099C64.3604 9.24452 64.581 9.27756 64.7862 9.35765C64.9913 9.43775 65.1758 9.56285 65.3259 9.7237C65.476 9.88454 65.5879 10.077 65.6533 10.2868C65.7187 10.4966 65.7359 10.7184 65.7036 10.9358V13.8508H64.8125V11.159C64.8125 10.4353 64.4971 10.0755 63.8381 10.0755C63.6889 10.0685 63.54 10.0938 63.4015 10.1497C63.2631 10.2055 63.1384 10.2905 63.036 10.3989C62.9335 10.5073 62.8558 10.6365 62.8082 10.7776C62.7605 10.9187 62.744 11.0685 62.7598 11.2166V13.8508H61.8687L61.8687 9.34791Z" fill="black"/>
<path d="M67.1236 7.59009H68.0148V13.8508H67.1236V7.59009Z" fill="black"/>
<path d="M69.2536 11.5974C69.2252 11.3015 69.2592 11.0029 69.3533 10.7208C69.4474 10.4388 69.5997 10.1794 69.8002 9.95941C70.0007 9.73942 70.2451 9.56366 70.5178 9.44338C70.7904 9.3231 71.0852 9.26097 71.3833 9.26097C71.6815 9.26097 71.9763 9.3231 72.2489 9.44338C72.5216 9.56366 72.766 9.73942 72.9665 9.95941C73.167 10.1794 73.3192 10.4388 73.4133 10.7208C73.5075 11.0029 73.5414 11.3015 73.5131 11.5974C73.542 11.8937 73.5084 12.1927 73.4145 12.4752C73.3206 12.7577 73.1685 13.0175 72.9679 13.2379C72.7674 13.4583 72.5228 13.6345 72.2499 13.755C71.977 13.8755 71.6818 13.9378 71.3833 13.9378C71.0849 13.9378 70.7897 13.8755 70.5168 13.755C70.2439 13.6345 69.9993 13.4583 69.7987 13.2379C69.5982 13.0175 69.446 12.7577 69.3522 12.4752C69.2583 12.1927 69.2247 11.8937 69.2536 11.5974ZM72.5959 11.5974C72.5959 10.6214 72.1562 10.0506 71.3846 10.0506C70.6099 10.0506 70.1742 10.6214 70.1742 11.5974C70.1742 12.5813 70.61 13.1477 71.3846 13.1477C72.1562 13.1477 72.596 12.5774 72.596 11.5974H72.5959Z" fill="black"/>
<path d="M74.4513 12.5774C74.4513 11.7669 75.0565 11.2996 76.1308 11.2332L77.3539 11.1629V10.7742C77.3539 10.2986 77.0386 10.03 76.4295 10.03C75.932 10.03 75.5873 10.2122 75.4883 10.5305H74.6256C74.7167 9.75709 75.4462 9.261 76.4706 9.261C77.6027 9.261 78.2412 9.823 78.2412 10.7742V13.8508H77.3833V13.218H77.3128C77.1697 13.445 76.9687 13.6301 76.7304 13.7543C76.4921 13.8785 76.225 13.9374 75.9565 13.925C75.7669 13.9447 75.5753 13.9245 75.394 13.8658C75.2128 13.8071 75.0458 13.7112 74.904 13.5842C74.7622 13.4573 74.6487 13.3021 74.5707 13.1287C74.4927 12.9552 74.452 12.7675 74.4513 12.5774ZM77.3539 12.1926V11.8162L76.2512 11.8865C75.6294 11.928 75.3473 12.1389 75.3473 12.5359C75.3473 12.9412 75.6999 13.177 76.1847 13.177C76.3267 13.1913 76.4702 13.177 76.6066 13.1349C76.743 13.0929 76.8695 13.0238 76.9786 12.932C77.0876 12.8402 77.1771 12.7274 77.2416 12.6004C77.3061 12.4733 77.3443 12.3347 77.3539 12.1926Z" fill="black"/>
<path d="M79.4124 11.5974C79.4124 10.1746 80.1459 9.27321 81.2868 9.27321C81.569 9.26024 81.8491 9.32764 82.0943 9.46754C82.3395 9.60743 82.5397 9.81404 82.6715 10.0632H82.7381V7.59009H83.6293V13.8508H82.7754V13.1394H82.7048C82.5628 13.3869 82.3556 13.5909 82.1057 13.7294C81.8557 13.8679 81.5726 13.9355 81.2868 13.925C80.1381 13.9251 79.4124 13.0237 79.4124 11.5974ZM80.333 11.5974C80.333 12.5525 80.7845 13.1272 81.5395 13.1272C82.2906 13.1272 82.7548 12.5442 82.7548 11.6013C82.7548 10.6629 82.2857 10.0715 81.5395 10.0715C80.7893 10.0715 80.333 10.6502 80.333 11.5974H80.333Z" fill="black"/>
<path d="M87.3164 11.5974C87.288 11.3015 87.3219 11.0029 87.416 10.7209C87.5101 10.4388 87.6623 10.1795 87.8628 9.95948C88.0633 9.73949 88.3077 9.56373 88.5803 9.44345C88.853 9.32318 89.1478 9.26105 89.4459 9.26105C89.744 9.26105 90.0388 9.32318 90.3114 9.44345C90.584 9.56373 90.8284 9.73949 91.0289 9.95948C91.2294 10.1795 91.3816 10.4388 91.4757 10.7209C91.5698 11.0029 91.6038 11.3015 91.5754 11.5974C91.6043 11.8936 91.5708 12.1926 91.4769 12.4752C91.383 12.7577 91.2309 13.0175 91.0304 13.2379C90.8298 13.4583 90.5853 13.6345 90.3124 13.755C90.0395 13.8755 89.7443 13.9378 89.4459 13.9378C89.1474 13.9378 88.8523 13.8755 88.5794 13.755C88.3065 13.6345 88.0619 13.4583 87.8613 13.2379C87.6608 13.0175 87.5087 12.7577 87.4148 12.4752C87.321 12.1926 87.2875 11.8936 87.3164 11.5974ZM90.6587 11.5974C90.6587 10.6214 90.219 10.0506 89.4473 10.0506C88.6727 10.0506 88.237 10.6214 88.237 11.5974C88.237 12.5813 88.6727 13.1477 89.4473 13.1477C90.219 13.1477 90.6587 12.5774 90.6587 11.5974Z" fill="black"/>
<path d="M92.7711 9.34791H93.629V10.0632H93.6956C93.8085 9.80632 93.9991 9.59095 94.2406 9.44715C94.4822 9.30334 94.7627 9.23827 95.0431 9.26099C95.2628 9.24452 95.4834 9.27756 95.6886 9.35765C95.8937 9.43775 96.0782 9.56285 96.2283 9.7237C96.3784 9.88454 96.4903 10.077 96.5557 10.2868C96.6211 10.4966 96.6383 10.7184 96.606 10.9358V13.8508H95.7149V11.159C95.7149 10.4353 95.3995 10.0755 94.7405 10.0755C94.5913 10.0685 94.4424 10.0938 94.3039 10.1497C94.1655 10.2055 94.0408 10.2905 93.9384 10.3989C93.836 10.5073 93.7583 10.6365 93.7106 10.7776C93.6629 10.9187 93.6465 11.0685 93.6623 11.2166V13.8508H92.7711V9.34791Z" fill="black"/>
<path d="M101.642 8.22682V9.36842H102.62V10.117H101.642V12.4324C101.642 12.9041 101.837 13.1106 102.28 13.1106C102.394 13.1102 102.507 13.1034 102.62 13.0901V13.8303C102.46 13.8589 102.298 13.8741 102.135 13.8757C101.144 13.8757 100.749 13.5281 100.749 12.6599V10.1169H100.033V9.36838H100.749V8.22682H101.642Z" fill="black"/>
<path d="M103.837 7.59009H104.721V10.0715H104.791C104.91 9.81222 105.105 9.59563 105.352 9.45128C105.598 9.30693 105.883 9.24185 106.168 9.2649C106.386 9.25304 106.605 9.28943 106.808 9.37147C107.011 9.45351 107.193 9.57918 107.341 9.73952C107.49 9.89986 107.601 10.0909 107.667 10.299C107.733 10.5072 107.752 10.7273 107.723 10.9436V13.8508H106.831V11.1628C106.831 10.4436 106.495 10.0793 105.865 10.0793C105.712 10.0668 105.558 10.0878 105.414 10.1409C105.27 10.1939 105.139 10.2777 105.031 10.3865C104.922 10.4952 104.839 10.6262 104.787 10.7704C104.735 10.9145 104.715 11.0683 104.728 11.2209V13.8508H103.837L103.837 7.59009Z" fill="black"/>
<path d="M112.919 12.635C112.798 13.0466 112.536 13.4025 112.178 13.6407C111.821 13.8788 111.39 13.984 110.963 13.9378C110.665 13.9456 110.37 13.8888 110.096 13.7712C109.823 13.6537 109.579 13.4783 109.38 13.2571C109.182 13.036 109.034 12.7745 108.947 12.4906C108.86 12.2068 108.836 11.9075 108.877 11.6135C108.837 11.3187 108.862 11.0187 108.948 10.7341C109.035 10.4494 109.182 10.1866 109.379 9.96354C109.577 9.74046 109.82 9.56229 110.093 9.44109C110.365 9.31988 110.66 9.25846 110.959 9.261C112.215 9.261 112.973 10.117 112.973 11.531V11.8411H109.785V11.8909C109.771 12.0561 109.791 12.2225 109.846 12.3792C109.9 12.536 109.986 12.6797 110.1 12.8011C110.213 12.9226 110.35 13.0191 110.503 13.0845C110.656 13.1499 110.821 13.1827 110.987 13.1809C111.2 13.2064 111.416 13.1681 111.608 13.0709C111.799 12.9737 111.957 12.822 112.061 12.635L112.919 12.635ZM109.785 11.1839H112.065C112.077 11.0327 112.056 10.8809 112.005 10.7382C111.954 10.5955 111.873 10.465 111.769 10.3551C111.664 10.2453 111.537 10.1585 111.397 10.1003C111.257 10.0421 111.106 10.0139 110.954 10.0174C110.8 10.0154 110.647 10.0443 110.504 10.1022C110.361 10.1602 110.231 10.246 110.123 10.3547C110.014 10.4635 109.928 10.5928 109.869 10.7352C109.811 10.8776 109.783 11.0302 109.785 11.1839H109.785Z" fill="black"/>
</svg>
