<svg width="24" height="24" viewBox="0 0 24 24" fill="none" xmlns="http://www.w3.org/2000/svg">
<path fill-rule="evenodd" clip-rule="evenodd" d="M2 7.52203C2 4.47719 4.47719 2 7.52203 2H16.478C19.5229 2 22 4.47719 22 7.52203V16.478C22 19.5229 19.5229 22 16.478 22H7.52203C4.47719 22 2 19.5229 2 16.478V7.52203ZM8.02914 12C8.02914 14.1895 9.81048 15.9709 12 15.9709C14.1895 15.9709 15.9709 14.1895 15.9709 12C15.9709 9.81048 14.1895 8.02914 12 8.02914C9.81048 8.02914 8.02914 9.81048 8.02914 12ZM6.74211 12C6.74211 9.10074 9.10074 6.74211 12 6.74211C14.8993 6.74211 17.2579 9.10074 17.2579 12C17.2579 14.8993 14.8993 17.2579 12 17.2579C9.10074 17.2579 6.74211 14.8993 6.74211 12ZM18.4048 4.12093C19.167 4.12093 19.7848 4.73881 19.7848 5.50099C19.7848 6.2632 19.167 6.88107 18.4048 6.88107C17.6426 6.88107 17.0247 6.2632 17.0247 5.50099C17.0247 4.73881 17.6426 4.12093 18.4048 4.12093Z" fill="white"/>
</svg>
