<svg width="24" height="24" viewBox="0 0 24 24" fill="none" xmlns="http://www.w3.org/2000/svg">
<path d="M17.8182 4H6.18182C5.60316 4 5.04821 4.22987 4.63904 4.63904C4.22987 5.04821 4 5.60316 4 6.18182V17.8182C4 18.3968 4.22987 18.9518 4.63904 19.361C5.04821 19.7701 5.60316 20 6.18182 20H17.8182C18.3968 20 18.9518 19.7701 19.361 19.361C19.7701 18.9518 20 18.3968 20 17.8182V6.18182C20 5.60316 19.7701 5.04821 19.361 4.63904C18.9518 4.22987 18.3968 4 17.8182 4ZM9.45455 16.6618C9.45467 16.7062 9.44603 16.7501 9.42913 16.7912C9.41224 16.8322 9.38741 16.8695 9.35608 16.9009C9.32475 16.9323 9.28753 16.9572 9.24655 16.9742C9.20557 16.9912 9.16164 17 9.11727 17H7.68C7.63556 17.0001 7.59153 16.9915 7.55044 16.9745C7.50936 16.9575 7.47203 16.9326 7.4406 16.9012C7.40917 16.8698 7.38427 16.8325 7.36732 16.7914C7.35036 16.7503 7.3417 16.7063 7.34182 16.6618V10.6364C7.34182 10.5467 7.37745 10.4607 7.44087 10.3972C7.50429 10.3338 7.59031 10.2982 7.68 10.2982H9.11727C9.20681 10.2984 9.29259 10.3342 9.35582 10.3976C9.41904 10.4609 9.45455 10.5468 9.45455 10.6364V16.6618ZM8.39818 9.72727C8.12848 9.72727 7.86484 9.6473 7.64059 9.49746C7.41634 9.34762 7.24156 9.13465 7.13835 8.88548C7.03514 8.63631 7.00813 8.36212 7.06075 8.0976C7.11336 7.83308 7.24324 7.59011 7.43395 7.3994C7.62465 7.20869 7.86763 7.07882 8.13215 7.0262C8.39667 6.97359 8.67085 7.00059 8.92002 7.1038C9.16919 7.20701 9.38217 7.38179 9.532 7.60604C9.68184 7.83029 9.76182 8.09393 9.76182 8.36364C9.76182 8.7253 9.61815 9.07214 9.36242 9.32787C9.10669 9.5836 8.75984 9.72727 8.39818 9.72727ZM16.9673 16.6855C16.9674 16.7263 16.9594 16.7668 16.9439 16.8046C16.9283 16.8424 16.9054 16.8767 16.8765 16.9056C16.8476 16.9345 16.8133 16.9574 16.7755 16.9729C16.7377 16.9885 16.6972 16.9965 16.6564 16.9964H15.1109C15.07 16.9965 15.0296 16.9885 14.9918 16.9729C14.954 16.9574 14.9197 16.9345 14.8908 16.9056C14.8619 16.8767 14.839 16.8424 14.8234 16.8046C14.8078 16.7668 14.7999 16.7263 14.8 16.6855V13.8627C14.8 13.4409 14.9236 12.0155 13.6973 12.0155C12.7473 12.0155 12.5536 12.9909 12.5155 13.4291V16.6891C12.5155 16.7708 12.4833 16.8492 12.426 16.9073C12.3687 16.9655 12.2908 16.9988 12.2091 17H10.7164C10.6756 17 10.6352 16.992 10.5975 16.9763C10.5599 16.9607 10.5256 16.9378 10.4968 16.9089C10.468 16.88 10.4452 16.8457 10.4297 16.808C10.4142 16.7703 10.4062 16.7299 10.4064 16.6891V10.61C10.4062 10.5692 10.4142 10.5288 10.4297 10.4911C10.4452 10.4534 10.468 10.4191 10.4968 10.3902C10.5256 10.3613 10.5599 10.3384 10.5975 10.3228C10.6352 10.3071 10.6756 10.2991 10.7164 10.2991H12.2091C12.2915 10.2991 12.3706 10.3318 12.4289 10.3902C12.4872 10.4485 12.52 10.5275 12.52 10.61V11.1355C12.8727 10.6055 13.3955 10.1982 14.5109 10.1982C16.9818 10.1982 16.9655 12.5055 16.9655 13.7727L16.9673 16.6855Z" fill="white"/>
</svg>
