<svg width="136" height="40" viewBox="0 0 136 40" fill="none" xmlns="http://www.w3.org/2000/svg">
<rect x="0.5" width="135" height="40" rx="20" fill="white"/>
<path d="M47.92 10.24C47.9364 10.6067 47.8785 10.973 47.7496 11.3167C47.6207 11.6604 47.4235 11.9745 47.17 12.24C46.8859 12.5333 46.5431 12.7633 46.164 12.9149C45.7849 13.0666 45.378 13.1365 44.97 13.12C44.5597 13.1291 44.1518 13.054 43.7717 12.8992C43.3916 12.7444 43.0472 12.5132 42.76 12.22C42.1773 11.624 41.8511 10.8235 41.8511 9.99C41.8511 9.15646 42.1773 8.35603 42.76 7.76C43.2055 7.32468 43.7697 7.03073 44.3818 6.91508C44.9938 6.79944 45.6264 6.86725 46.2 7.11C46.5606 7.25823 46.8823 7.48748 47.14 7.78L46.61 8.30999C46.4114 8.07077 46.1598 7.88113 45.8751 7.75615C45.5904 7.63116 45.2805 7.57428 44.97 7.59C44.578 7.59271 44.1927 7.69139 43.8477 7.87741C43.5026 8.06343 43.2084 8.33114 42.9907 8.65712C42.773 8.98311 42.6385 9.35745 42.5989 9.74743C42.5593 10.1374 42.6158 10.5312 42.7635 10.8943C42.9112 11.2573 43.1456 11.5787 43.4462 11.8303C43.7468 12.0819 44.1044 12.2561 44.4878 12.3375C44.8713 12.419 45.2688 12.4053 45.6457 12.2977C46.0226 12.19 46.3675 11.9917 46.65 11.72C46.9555 11.3851 47.1326 10.9529 47.15 10.5H44.97V9.78H47.88C47.9028 9.93236 47.9161 10.086 47.92 10.24Z" fill="black" stroke="black" stroke-width="0.2" stroke-miterlimit="10"/>
<path d="M52.5 7.74H49.8V9.64H52.26V10.36H49.8V12.26H52.5V13H49.02V7H52.5V7.74Z" fill="black" stroke="black" stroke-width="0.2" stroke-miterlimit="10"/>
<path d="M55.78 13H55.01V7.74H53.33V7H57.5V7.74H55.78V13Z" fill="black" stroke="black" stroke-width="0.2" stroke-miterlimit="10"/>
<path d="M60.44 13V7H61.21V13H60.44Z" fill="black" stroke="black" stroke-width="0.2" stroke-miterlimit="10"/>
<path d="M64.63 13H63.86V7.74H62.18V7H66.3V7.74H64.63V13Z" fill="black" stroke="black" stroke-width="0.2" stroke-miterlimit="10"/>
<path d="M74.11 12.22C73.8212 12.509 73.4783 12.7384 73.1008 12.8948C72.7233 13.0513 72.3187 13.1318 71.91 13.1318C71.5014 13.1318 71.0968 13.0513 70.7193 12.8948C70.3418 12.7384 69.9989 12.509 69.71 12.22C69.1447 11.619 68.83 10.8251 68.83 9.99999C68.83 9.17493 69.1447 8.38094 69.71 7.77999C69.9926 7.48279 70.3345 7.24822 70.7134 7.09147C71.0924 6.93471 71.5001 6.85926 71.91 6.86999C72.3194 6.86352 72.7258 6.94091 73.1042 7.09741C73.4825 7.25391 73.8248 7.48621 74.11 7.77999C74.3976 8.07248 74.6236 8.41962 74.7747 8.80092C74.9259 9.18221 74.9991 9.58993 74.99 9.99999C75.0032 10.4106 74.9318 10.8195 74.7804 11.2013C74.6291 11.5832 74.4009 11.9299 74.11 12.22ZM70.28 11.72C70.4931 11.9359 70.7469 12.1073 71.0267 12.2243C71.3065 12.3413 71.6068 12.4015 71.91 12.4015C72.2133 12.4015 72.5136 12.3413 72.7934 12.2243C73.0732 12.1073 73.327 11.9359 73.54 11.72C73.9715 11.2511 74.211 10.6372 74.211 9.99999C74.211 9.36279 73.9715 8.74886 73.54 8.27999C73.327 8.06411 73.0732 7.8927 72.7934 7.77571C72.5136 7.65871 72.2133 7.59847 71.91 7.59847C71.6068 7.59847 71.3065 7.65871 71.0267 7.77571C70.7469 7.8927 70.4931 8.06411 70.28 8.27999C69.8485 8.74886 69.609 9.36279 69.609 9.99999C69.609 10.6372 69.8485 11.2511 70.28 11.72Z" fill="black" stroke="black" stroke-width="0.2" stroke-miterlimit="10"/>
<path d="M76.08 13V7H77.01L79.93 11.67V10.51V7H80.7V13H79.9L76.85 8.11V9.26V13H76.08Z" fill="black" stroke="black" stroke-width="0.2" stroke-miterlimit="10"/>
<path d="M68.64 21.75C67.7974 21.752 66.9744 22.0038 66.2749 22.4735C65.5755 22.9432 65.031 23.6098 64.7104 24.389C64.3898 25.1682 64.3075 26.0249 64.4738 26.8509C64.6401 27.6768 65.0476 28.435 65.6448 29.0293C66.242 29.6237 67.002 30.0276 67.8287 30.1901C68.6555 30.3525 69.5118 30.2661 70.2895 29.9419C71.0671 29.6176 71.7311 29.0701 72.1976 28.3684C72.664 27.6668 72.912 26.8425 72.91 26C72.9181 25.4379 72.8131 24.88 72.6012 24.3593C72.3892 23.8387 72.0746 23.3661 71.6762 22.9695C71.2778 22.573 70.8037 22.2606 70.2821 22.0511C69.7604 21.8416 69.202 21.7392 68.64 21.75ZM68.64 28.58C68.1236 28.6161 67.6082 28.496 67.1609 28.2354C66.7137 27.9747 66.3552 27.5856 66.132 27.1184C65.9088 26.6513 65.8314 26.1279 65.9097 25.6161C65.9879 25.1044 66.2184 24.6281 66.5709 24.249C66.9235 23.87 67.382 23.6058 67.8867 23.4908C68.3915 23.3758 68.9192 23.4152 69.4012 23.6041C69.8832 23.7929 70.2972 24.1224 70.5895 24.5497C70.8818 24.977 71.0387 25.4823 71.04 26C71.0561 26.328 71.0063 26.6559 70.8937 26.9644C70.7811 27.2729 70.6078 27.5557 70.3841 27.7962C70.1604 28.0366 69.8909 28.2299 69.5913 28.3645C69.2918 28.4991 68.9683 28.5724 68.64 28.58ZM59.32 21.75C58.4774 21.752 57.6544 22.0038 56.9549 22.4735C56.2555 22.9432 55.711 23.6098 55.3904 24.389C55.0698 25.1682 54.9875 26.0249 55.1538 26.8509C55.3201 27.6768 55.7276 28.435 56.3248 29.0293C56.922 29.6237 57.682 30.0276 58.5087 30.1901C59.3355 30.3525 60.1918 30.2661 60.9695 29.9419C61.7471 29.6176 62.4111 29.0701 62.8776 28.3684C63.344 27.6668 63.5919 26.8425 63.59 26C63.5981 25.4379 63.4931 24.88 63.2812 24.3593C63.0692 23.8387 62.7546 23.3661 62.3562 22.9695C61.9578 22.573 61.4837 22.2606 60.9621 22.0511C60.4404 21.8416 59.882 21.7392 59.32 21.75ZM59.32 28.58C58.8036 28.6161 58.2882 28.496 57.8409 28.2354C57.3937 27.9747 57.0352 27.5856 56.812 27.1184C56.5888 26.6513 56.5114 26.1279 56.5897 25.6161C56.6679 25.1044 56.8984 24.6281 57.2509 24.249C57.6035 23.87 58.062 23.6058 58.5667 23.4908C59.0715 23.3758 59.5992 23.4152 60.0812 23.6041C60.5632 23.7929 60.9772 24.1224 61.2695 24.5497C61.5618 24.977 61.7187 25.4823 61.72 26C61.7361 26.328 61.6863 26.6559 61.5737 26.9644C61.4611 27.2729 61.2878 27.5557 61.0641 27.7962C60.8404 28.0366 60.5709 28.2299 60.2713 28.3645C59.9718 28.4991 59.6483 28.5724 59.32 28.58ZM48.24 23.06V24.86H52.56C52.4922 25.7078 52.1398 26.5078 51.56 27.13C51.1266 27.5715 50.6054 27.9171 50.0301 28.1445C49.4547 28.3719 48.8381 28.476 48.22 28.45C46.9469 28.45 45.726 27.9443 44.8259 27.0441C43.9257 26.1439 43.42 24.923 43.42 23.65C43.42 22.377 43.9257 21.1561 44.8259 20.2559C45.726 19.3557 46.9469 18.85 48.22 18.85C49.4404 18.8318 50.6189 19.2953 51.5 20.14L52.77 18.87C52.174 18.2805 51.4663 17.8159 50.6884 17.5034C49.9106 17.1909 49.0782 17.0367 48.24 17.05C47.351 17.0154 46.4641 17.1606 45.6326 17.477C44.8011 17.7933 44.0419 18.2743 43.4007 18.891C42.7595 19.5078 42.2494 20.2476 41.901 21.0662C41.5525 21.8848 41.3729 22.7653 41.3729 23.655C41.3729 24.5447 41.5525 25.4252 41.901 26.2438C42.2494 27.0624 42.7595 27.8022 43.4007 28.419C44.0419 29.0357 44.8011 29.5167 45.6326 29.833C46.4641 30.1494 47.351 30.2946 48.24 30.26C49.0954 30.2942 49.9484 30.147 50.7429 29.8282C51.5374 29.5093 52.2555 29.026 52.85 28.41C53.9001 27.2564 54.4596 25.7392 54.41 24.18C54.4136 23.8047 54.3834 23.4299 54.32 23.06H48.24ZM93.55 24.46C93.2892 23.6927 92.8015 23.0228 92.1515 22.5388C91.5015 22.0549 90.7198 21.7798 89.91 21.75C89.363 21.7489 88.8216 21.8601 88.3192 22.0765C87.8169 22.293 87.3643 22.6102 86.9894 23.0085C86.6145 23.4069 86.3252 23.8778 86.1396 24.3924C85.9539 24.9069 85.8758 25.4541 85.91 26C85.9014 26.9128 86.1884 27.804 86.7281 28.5403C87.2678 29.2766 88.0312 29.8185 88.9042 30.0851C89.7773 30.3518 90.7132 30.3288 91.5722 30.0197C92.4311 29.7106 93.167 29.1319 93.67 28.37L92.22 27.37C92.0038 27.7303 91.6972 28.0278 91.3306 28.233C90.964 28.4383 90.5501 28.5441 90.13 28.54C89.6965 28.5579 89.2678 28.4443 88.9002 28.214C88.5325 27.9838 88.2431 27.6477 88.07 27.25L93.76 24.9L93.55 24.46ZM87.75 25.88C87.7297 25.5694 87.7716 25.2578 87.8733 24.9636C87.9749 24.6694 88.1342 24.3984 88.3419 24.1665C88.5495 23.9346 88.8014 23.7465 89.0827 23.6132C89.3639 23.4798 89.669 23.404 89.98 23.39C90.3022 23.3703 90.623 23.4462 90.9023 23.6081C91.1816 23.7699 91.4069 24.0106 91.55 24.3L87.75 25.88ZM83.13 30H85V17.5H83.13V30ZM80.07 22.7H80C79.7206 22.3819 79.3759 22.1278 78.9893 21.9552C78.6027 21.7826 78.1833 21.6956 77.76 21.7C76.6672 21.753 75.6366 22.2244 74.882 23.0166C74.1273 23.8087 73.7063 24.8609 73.7063 25.955C73.7063 27.0491 74.1273 28.1013 74.882 28.8934C75.6366 29.6856 76.6672 30.157 77.76 30.21C78.1839 30.2185 78.6046 30.1333 78.9918 29.9604C79.379 29.7875 79.7233 29.5313 80 29.21H80.07V29.82C80.07 31.45 79.2 32.32 77.8 32.32C77.3323 32.3097 76.8782 32.1607 76.4954 31.8918C76.1126 31.623 75.8183 31.2464 75.65 30.81L74.03 31.48C74.3295 32.2322 74.8502 32.8759 75.5234 33.3258C76.1965 33.7758 76.9904 34.0109 77.8 34C79.99 34 81.8 32.71 81.8 29.57V22H80.07V22.7ZM77.92 28.58C77.2648 28.5392 76.6498 28.2501 76.2003 27.7717C75.7508 27.2932 75.5005 26.6615 75.5005 26.005C75.5005 25.3485 75.7508 24.7168 76.2003 24.2383C76.6498 23.7599 77.2648 23.4708 77.92 23.43C78.2402 23.4438 78.5544 23.5219 78.8438 23.6596C79.1333 23.7974 79.3921 23.9919 79.6048 24.2317C79.8175 24.4714 79.9798 24.7516 80.0821 25.0554C80.1843 25.3591 80.2244 25.6804 80.2 26C80.2273 26.3207 80.1892 26.6436 80.0881 26.9492C79.9871 27.2547 79.8251 27.5366 79.6119 27.7778C79.3988 28.019 79.139 28.2144 78.8482 28.3523C78.5574 28.4902 78.2416 28.5676 77.92 28.58ZM102.31 17.5H97.83V30H99.7V25.26H102.31C102.843 25.2983 103.378 25.2264 103.882 25.0487C104.386 24.8711 104.848 24.5915 105.239 24.2275C105.63 23.8635 105.942 23.4227 106.155 22.9328C106.369 22.4429 106.479 21.9143 106.479 21.38C106.479 20.8457 106.369 20.3171 106.155 19.8272C105.942 19.3373 105.63 18.8965 105.239 18.5325C104.848 18.1685 104.386 17.8889 103.882 17.7113C103.378 17.5336 102.843 17.4617 102.31 17.5ZM102.31 23.5H99.7V19.24H102.35C102.631 19.24 102.909 19.2954 103.169 19.4029C103.429 19.5104 103.664 19.6681 103.863 19.8668C104.062 20.0655 104.22 20.3014 104.327 20.5611C104.435 20.8207 104.49 21.099 104.49 21.38C104.49 21.661 104.435 21.9393 104.327 22.1989C104.22 22.4586 104.062 22.6945 103.863 22.8932C103.664 23.0919 103.429 23.2496 103.169 23.3571C102.909 23.4646 102.631 23.52 102.35 23.52L102.31 23.5ZM113.85 21.71C113.169 21.668 112.491 21.8265 111.899 22.166C111.307 22.5055 110.828 23.011 110.52 23.62L112.17 24.31C112.337 24.0094 112.587 23.7635 112.89 23.602C113.194 23.4405 113.538 23.3704 113.88 23.4C114.117 23.3723 114.358 23.3921 114.588 23.4583C114.817 23.5245 115.031 23.6358 115.218 23.7857C115.404 23.9356 115.558 24.121 115.672 24.3312C115.786 24.5414 115.856 24.7722 115.88 25.01V25.13C115.279 24.8139 114.609 24.6492 113.93 24.65C112.15 24.65 110.33 25.65 110.33 27.47C110.348 27.8568 110.443 28.2362 110.61 28.5855C110.777 28.9349 111.013 29.2471 111.303 29.5036C111.593 29.7601 111.931 29.9557 112.299 30.0788C112.666 30.2019 113.054 30.2499 113.44 30.22C113.909 30.246 114.377 30.1466 114.795 29.9323C115.213 29.7179 115.567 29.3961 115.82 29H115.88V30H117.68V25.19C117.68 23 116.02 21.73 113.89 21.73L113.85 21.71ZM113.62 28.56C113.01 28.56 112.16 28.25 112.16 27.5C112.16 26.5 113.22 26.16 114.16 26.16C114.754 26.1453 115.341 26.2904 115.86 26.58C115.797 27.1231 115.54 27.625 115.135 27.9927C114.731 28.3605 114.207 28.5691 113.66 28.58L113.62 28.56ZM124.24 22L122.1 27.42H122.04L119.82 22H117.82L121.15 29.58L119.25 33.79H121.2L126.32 22H124.24ZM107.44 30H109.3V17.5H107.44V30Z" fill="black"/>
<path d="M10.94 7.54C10.6105 7.92962 10.4423 8.43047 10.47 8.94V31.06C10.436 31.5704 10.6049 32.0735 10.94 32.46L11.01 32.54L23.4 20.15V19.85L11.01 7.47L10.94 7.54Z" fill="url(#paint0_linear_1704_83327)"/>
<path d="M27.5 24.28L23.4 20.15V19.85L27.5 15.72L27.59 15.78L32.5 18.56C33.9 19.35 33.9 20.65 32.5 21.45L27.61 24.23L27.5 24.28Z" fill="url(#paint1_linear_1704_83327)"/>
<path d="M27.62 24.22L23.4 20L10.94 32.46C11.2226 32.7115 11.5843 32.8562 11.9624 32.869C12.3404 32.8818 12.7111 32.7619 13.01 32.53L27.62 24.22Z" fill="url(#paint2_linear_1704_83327)"/>
<path d="M27.62 15.78L13.01 7.48C12.713 7.24491 12.3427 7.12206 11.9641 7.13303C11.5855 7.14401 11.2229 7.28811 10.94 7.54L23.4 20L27.62 15.78Z" fill="url(#paint3_linear_1704_83327)"/>
<path opacity="0.2" d="M27.5 24.13L13.01 32.38C12.7219 32.5974 12.3709 32.715 12.01 32.715C11.6491 32.715 11.2981 32.5974 11.01 32.38L10.94 32.45L11.01 32.53C11.2981 32.7474 11.6491 32.865 12.01 32.865C12.3709 32.865 12.7219 32.7474 13.01 32.53L27.62 24.22L27.5 24.13Z" fill="black"/>
<path opacity="0.12" d="M10.94 32.32C10.6188 31.9234 10.4614 31.4189 10.5 30.91V31.06C10.466 31.5704 10.6349 32.0735 10.97 32.46L11.04 32.39L10.94 32.32Z" fill="black"/>
<path opacity="0.12" d="M32.5 21.3L27.5 24.13L27.59 24.22L32.5 21.44C32.7898 21.3174 33.0413 21.119 33.2278 20.8656C33.4143 20.6122 33.5291 20.3132 33.56 20C33.4975 20.2846 33.369 20.5505 33.1849 20.7763C33.0007 21.0021 32.7662 21.1815 32.5 21.3Z" fill="black"/>
<path opacity="0.25" d="M13.01 7.62001L32.5 18.7C32.7661 18.8185 33.0007 18.9979 33.1848 19.2237C33.369 19.4495 33.4975 19.7154 33.56 20C33.5291 19.6869 33.4143 19.3878 33.2278 19.1344C33.0412 18.881 32.7898 18.6826 32.5 18.56L13.01 7.48001C11.62 6.68001 10.47 7.34001 10.47 8.94001V9.09001C10.5 7.49001 11.62 6.83001 13.01 7.62001Z" fill="white"/>
<defs>
<linearGradient id="paint0_linear_1704_83327" x1="22.3" y1="8.71" x2="5.52" y2="25.49" gradientUnits="userSpaceOnUse">
<stop stop-color="#00A0FF"/>
<stop offset="0.01" stop-color="#00A1FF"/>
<stop offset="0.26" stop-color="#00BEFF"/>
<stop offset="0.51" stop-color="#00D2FF"/>
<stop offset="0.76" stop-color="#00DFFF"/>
<stop offset="1" stop-color="#00E3FF"/>
</linearGradient>
<linearGradient id="paint1_linear_1704_83327" x1="34.33" y1="20" x2="10.14" y2="20" gradientUnits="userSpaceOnUse">
<stop stop-color="#FFE000"/>
<stop offset="0.41" stop-color="#FFBD00"/>
<stop offset="0.78" stop-color="#FFA500"/>
<stop offset="1" stop-color="#FF9C00"/>
</linearGradient>
<linearGradient id="paint2_linear_1704_83327" x1="25.33" y1="22.3" x2="2.57" y2="45.05" gradientUnits="userSpaceOnUse">
<stop stop-color="#FF3A44"/>
<stop offset="1" stop-color="#C31162"/>
</linearGradient>
<linearGradient id="paint3_linear_1704_83327" x1="7.8" y1="0.18" x2="17.96" y2="10.34" gradientUnits="userSpaceOnUse">
<stop stop-color="#32A071"/>
<stop offset="0.07" stop-color="#2DA771"/>
<stop offset="0.48" stop-color="#15CF74"/>
<stop offset="0.8" stop-color="#06E775"/>
<stop offset="1" stop-color="#00F076"/>
</linearGradient>
</defs>
</svg>
