<svg width="24" height="24" viewBox="0 0 24 24" fill="none" xmlns="http://www.w3.org/2000/svg">
<path d="M11.9938 2C14.6449 2.00095 17.1331 3.03307 19.0039 4.90629C20.8752 6.77951 21.905 9.26956 21.904 11.9178C21.9021 17.382 17.4557 21.828 11.9938 21.828H11.9896C10.3311 21.8275 8.70119 21.4117 7.25375 20.6219L2 22L3.4061 16.8641C2.53887 15.3615 2.08221 13.6565 2.08316 11.9097C2.08506 6.44545 6.53098 2 11.9938 2Z" fill="white"/>
<path d="M14.8191 13.1798C15.0463 13.2625 16.2637 13.8613 16.5113 13.9853L16.5108 13.9862C16.7584 14.1102 16.9238 14.1725 16.9856 14.2756C17.0473 14.3787 17.0473 14.8748 16.8411 15.4532C16.6349 16.0315 15.6455 16.5594 15.1698 16.6307C14.7431 16.6944 14.2033 16.721 13.6102 16.5323C13.2505 16.4183 12.7891 16.2657 12.1984 16.0106C9.71456 14.9376 8.09227 12.4366 7.96826 12.2713L7.96673 12.2692C7.83715 12.0965 6.95703 10.923 6.95703 9.70946C6.95703 8.49106 7.59666 7.89184 7.82379 7.64381C8.05092 7.39576 8.31896 7.33398 8.48433 7.33398C8.6497 7.33398 8.81457 7.33541 8.95904 7.34254C9.11064 7.35062 9.31493 7.28504 9.51596 7.76783C9.72269 8.26344 10.2178 9.48234 10.2796 9.60635C10.3414 9.73042 10.3827 9.87483 10.3 10.0402C10.2174 10.2051 10.1765 10.3087 10.0524 10.4532C9.92842 10.5976 9.79202 10.7758 9.68084 10.887C9.55732 11.0101 9.42806 11.1441 9.57253 11.3921C9.71694 11.6402 10.214 12.4509 10.9501 13.1076C11.8962 13.9511 12.6941 14.2124 12.9416 14.3364C13.1892 14.4605 13.3337 14.44 13.4781 14.2747C13.6226 14.1098 14.0973 13.5519 14.2622 13.3039C14.4271 13.0558 14.592 13.0971 14.8191 13.1798Z" fill="black"/>
</svg>
