<svg width="24" height="24" viewBox="0 0 24 24" fill="none" xmlns="http://www.w3.org/2000/svg">
<path d="M21.5836 7.18547C21.4687 6.76098 21.2442 6.37419 20.9325 6.06395C20.6208 5.7537 20.233 5.53093 19.8079 5.418C18.2478 5 11.9959 5 11.9959 5C11.9959 5 5.74229 5 4.18547 5.418C3.76181 5.53189 3.37553 5.75512 3.06532 6.06532C2.75512 6.37553 2.53189 6.76181 2.418 7.18547C2 8.74393 2 11.9974 2 11.9974C2 11.9974 2 15.251 2.418 16.8094C2.53189 17.2331 2.75512 17.6194 3.06532 17.9296C3.37553 18.2398 3.76181 18.463 4.18547 18.5769C5.74393 18.9883 11.9959 18.9883 11.9959 18.9883C11.9959 18.9883 18.2495 18.9883 19.8079 18.5703C20.2322 18.458 20.6195 18.2362 20.9311 17.9272C21.2427 17.6181 21.4677 17.2327 21.5836 16.8094C22 15.251 22 11.9974 22 11.9974C22 11.9974 21.9918 8.74393 21.5836 7.18547ZM9.99638 14.9959V8.99901L15.1918 11.9974L9.99638 14.9959Z" fill="white"/>
</svg>
